<?xml version="1.0" encoding="utf-8"?>
<!-- Svg Vector Icons : http://www.onlinewebfonts.com/icon -->
<!DOCTYPE svg PUBLIC "-//W3C//DTD SVG 1.1//EN" "http://www.w3.org/Graphics/SVG/1.1/DTD/svg11.dtd">
<svg version="1.1" xmlns="http://www.w3.org/2000/svg" xmlns:xlink="http://www.w3.org/1999/xlink" x="0px" y="0px" viewBox="0 0 256 256" enable-background="new 0 0 256 256" xml:space="preserve">
    <metadata> Svg Vector Icons : http://www.onlinewebfonts.com/icon </metadata>
    <g>
        <g>
            <path fill="#615c5cff" d="M10,50.4v155.2h236V50.4H10z M235.1,193.7H21.8v-132h213.2V193.7z"/>
            <path fill="#615c5cff" d="M45.6,93.9c0,8.5,6.8,15.3,15.3,15.3c8.5,0,15.3-6.8,15.3-15.3c0-8.5-6.8-15.3-15.3-15.3C52.4,78.6,45.6,85.5,45.6,93.9z"/>
            <path fill="#615c5cff" d="M193.5,186.4l30.3,0L186,80.7l-32,56.8l-19.7-24.4l-28,34.6l-11.1-8.9l-59.4,47.6l118.6,0.1l0,0H193.5L193.5,186.4z"/>
        </g>
    </g>
</svg>